<?xml version="1.0" encoding="UTF-8" standalone="no"?>
<svg
   xmlns:dc="http://purl.org/dc/elements/1.1/"
   xmlns:cc="http://creativecommons.org/ns#"
   xmlns:rdf="http://www.w3.org/1999/02/22-rdf-syntax-ns#"
   xmlns:svg="http://www.w3.org/2000/svg"
   xmlns="http://www.w3.org/2000/svg"
   xmlns:sodipodi="http://sodipodi.sourceforge.net/DTD/sodipodi-0.dtd"
   xmlns:inkscape="http://www.inkscape.org/namespaces/inkscape"
   data-name="Слой 1"
   viewBox="0 0 92 76.104988"
   x="0px"
   y="0px"
   version="1.1"
   id="svg20"
   sodipodi:docname="cute_cat1.svg"
   width="92"
   height="76.104988"
   inkscape:version="0.92.5 (2060ec1f9f, 2020-04-08)">
  <metadata
     id="metadata26">
    <rdf:RDF>
      <cc:Work
         rdf:about="">
        <dc:format>image/svg+xml</dc:format>
        <dc:type
           rdf:resource="http://purl.org/dc/dcmitype/StillImage" />
        <dc:title>doodle2_Монтажная область 1_Монтажная область 1_Монтажная область 1_Монтажная область 1_Монтажная область 1_Монтажная область 1_Монтажная область 1_Монтажная область 1_Монтажная область 1</dc:title>
      </cc:Work>
    </rdf:RDF>
  </metadata>
  <defs
     id="defs24" />
  <sodipodi:namedview
     pagecolor="#ffffff"
     bordercolor="#666666"
     borderopacity="1"
     objecttolerance="10"
     gridtolerance="10"
     guidetolerance="10"
     inkscape:pageopacity="0"
     inkscape:pageshadow="2"
     inkscape:window-width="1280"
     inkscape:window-height="670"
     id="namedview22"
     showgrid="false"
     inkscape:zoom="1.888"
     inkscape:cx="46.000001"
     inkscape:cy="25.552497"
     inkscape:window-x="0"
     inkscape:window-y="24"
     inkscape:window-maximized="1"
     inkscape:current-layer="svg20" />
  <title
     id="title2">doodle2_Монтажная область 1_Монтажная область 1_Монтажная область 1_Монтажная область 1_Монтажная область 1_Монтажная область 1_Монтажная область 1_Монтажная область 1_Монтажная область 1</title>
  <path
     d="m 12.185401,25.775494 c -0.43959,-9.42846 3.45424,-17.2298001 8.04813,-24.7652301 0.98425,-1.61440996 3.469,-1.25043996 5.454,0.78088 a 14.11168,14.11168 0 0 1 2.44269,3.352 c 2.22,4.323 4.3197,8.7062201 6.60729,13.3558701 a 12.12682,12.12682 0 0 1 3.66179,-0.963 c 5.86248,0.16157 11.857,-0.71291 17.46808,1.96184 1.5008,0.71548 1.84949,-0.23074 2.28727,-1.22126 a 68.61182,68.61182 0 0 1 2.85335,-6.36455 c 1.97686,-3.4639001 4.13191,-6.8298901 6.3655,-10.1318201 a 2.2871,2.2871 0 0 1 2.22214,-0.43089 10.44541,10.44541 0 0 1 3.42051,3.36016 97.8979,97.8979 0 0 1 6.03878,13.5507901 c 1.57138,4.86683 4.35211,8.78494 7.52453,12.61094 3.65381,4.40655 6.29757,9.31806 5.14912,15.16064 a 32.371,32.371 0 0 1 -3.4526,9.94922 c -3.41878,5.87321 -6.85716,12.20455 -13.61698,14.75285 -8.87474,3.34553 -18.05959,5.8214 -27.81726,5.30207 -6.71008,-0.35716 -13.48423,0.23277 -20.05021,-1.94985 -9.22132,-3.06521 -17.7775303,-7.20836 -22.5411603,-16.31285 -2.83148,-5.4117 -5.08007,-11.20101 -3.95405,-17.47081 a 19.323,19.323 0 0 1 11.8890803,-14.527 z m 27.93371,1.67179 a 20.01112,20.01112 0 0 1 -2.15146,3.331 9.68968,9.68968 0 0 1 -2.62932,1.41533 c -0.39775,-0.84765 -1.128,-1.6968 -1.13883,-2.54266 -0.06592,-5.1395 -2.409,-9.69064 -4.01582,-14.38216 -1.24833,-3.64477 -3.36013,-7.0296001 -5.29037,-10.4171901 -0.68967,-1.21037 -2.0331,-2.70995 -3.34026,-0.58958 -3.82242,6.2005601 -6.68721,12.8177001 -7.10652,20.2386601 -0.14552,2.57543 -0.45054,4.60058 -3.37245,5.236 a 4.51959,4.51959 0 0 0 -1.7583703,1.22859 c -6.66429,5.98754 -7.80893,13.13195 -3.93954,22.25507 3.53183,8.32725 10.0582303,13.24815 18.0687603,16.51139 7.46,3.039 15.39893,3.23945 23.21853,3.441 8.23722,0.21224 16.19255,-1.89348 23.92443,-4.3953 a 18.42776,18.42776 0 0 0 8.26329,-5.0317 c 3.885,-4.63181 7.80564,-9.47906 9.3844,-15.55978 a 16.49276,16.49276 0 0 0 0.53326,-7.09072 c -1.03291,-5.19859 -4.64676,-8.94125 -8.316,-12.57676 a 10.78391,10.78391 0 0 1 -2.36184,-3.52698 c -2.48037,-6.16575 -4.80234,-12.39279 -7.2466,-18.5729201 a 9.91171,9.91171 0 0 0 -1.71314,-2.05454 13.48479,13.48479 0 0 1 -0.89958,1.29541 c -4.16634,4.4890001 -5.68209,10.3387101 -7.99534,15.7890001 a 19.15562,19.15562 0 0 1 -2.364,3.36877 c -0.47332,2.80195 -0.2944,5.9054 -3.31762,7.98728 -1.44334,0.99393 -2.54247,1.11293 -3.3498,-0.56 -1.33628,-2.76874 -2.545,-5.59735 -3.68072,-8.11933 a 36.1623,36.1623 0 0 1 -1.3082,5.80699 c -0.44973,1.17721 -1.74589,2.01863 -2.66163,3.011 a 34.97857,34.97857 0 0 1 -2.7082,-3.10951 8.37133,8.37133 0 0 1 -0.72706,-2.38636 z m 12.58327,2.38106 1.01445,-0.12318 a 7.97648,7.97648 0 0 0 0.20208,-7.34926 c -0.38807,-0.818 -1.98186,-1.0805 -3.02464,-1.59685 l -0.7543,0.74259 q 1.28123,4.16338 2.56241,8.3267 z m -9.70071,-1.40556 q 0.463,0.02679 0.926,0.05346 0.75478,-3.93989 1.50957,-7.87988 l -0.71825,-0.521 c -0.65819,0.45121 -1.85634,0.86461 -1.88241,1.36008 -0.12189,2.31672 0.07931,4.65605 0.16509,6.98734 z m -6.55151,-0.89379 0.72305,0.19223 c 0.52771,-2.23149 1.05538,-4.463 1.649,-6.97323 -2.78309,0.8875 -2.78309,0.8875 -2.37205,6.781 z"
     id="path4"
     clip-path="none"
     inkscape:connector-curvature="0" />
  <path
     d="m 46.574001,62.757074 c -3.22592,3.9626 -7.69642,3.38546 -12.12087,2.52514 -0.75214,-0.14623 -1.29633,-1.46277 -1.93661,-2.23871 0.98937,-0.42152 1.97159,-1.17593 2.96986,-1.17989 1.23,-0.0048 2.48694,0.9381 3.70847,0.90791 4.625,-0.1142 6.781,-3.30883 5.3178,-7.78154 a 3.56884,3.56884 0 0 0 -1.68865,-1.55314 c -1.76651,-0.98058 -3.7534,-1.63065 -5.34946,-2.8224 a 5.22854,5.22854 0 0 1 -2.03488,-3.396 c -0.074,-1.893 0.44827,-4.06109 2.89659,-4.36718 a 110.35766,110.35766 0 0 1 11.64241,-0.99308 4.00478,4.00478 0 0 1 3.09583,2.12082 7.85773,7.85773 0 0 1 -0.22978,5.20111 c -0.7152,1.43975 -2.67388,2.1982 -3.88806,3.449 a 4.93492,4.93492 0 0 0 -1.54826,2.84708 c -0.14714,5.03659 3.97478,7.89516 9.38621,6.67765 a 4.68862,4.68862 0 0 1 1.16187,-0.29886 23.498,23.498 0 0 1 3.34356,0.383 c 0.15127,0.03011 0.36773,1.07855 0.2126,1.19139 -1.0607,0.77123 -2.13738,1.79957 -3.35224,2.01889 a 15.27823,15.27823 0 0 1 -5.98843,0.06241 c -1.86517,-0.42918 -3.54961,-1.7041 -5.59796,-2.7536 z m -8.20593,-16.38458 0.0774,1.00727 c 1.05711,0.57549 2.09382,1.19411 3.175,1.71864 3.635,1.76389 5.67843,1.459 8.47174,-1.31947 0.38406,-0.38208 0.77948,-1.16024 0.629,-1.5595 a 1.81172,1.81172 0 0 0 -1.48739,-0.82709 c -1.56791,0.15216 -3.10281,0.5745 -4.6653,0.80064 a 21.76358,21.76358 0 0 1 -2.50354,0.05974 c -1.2326,0.03338 -2.46466,0.07926 -3.69691,0.11977 z"
     id="path6"
     inkscape:connector-curvature="0" />
  <path
     d="m 19.849581,9.6518139 a 2.092,2.092 0 0 1 3.90474,-0.56755 c 2.06961,3.4897501 4.05173,7.0415401 5.85192,10.6729001 1.31534,2.65345 0.72294,3.27683 -2.21266,3.6016 -2.22173,0.2458 -4.37714,1.01491 -6.59915,1.25356 -2.74879,0.29522 -3.173,-0.21551 -3.2326,-2.9835 -0.01221,-0.56635 0.0066,-1.13281 0.01116,-1.69927 a 80.75645,80.75645 0 0 1 2.27659,-10.2777401 z m 6.76335,10.3274101 c -1.54051,-2.55735 -2.88437,-4.78829 -4.22827,-7.01917 q -0.36307,0.09777 -0.72609,0.19561 c -0.12,2.73144 -2.50868,5.23167 -0.519,8.32933 1.79543,-0.49397 3.38979,-0.9325 5.47336,-1.50577 z"
     id="path8"
     inkscape:connector-curvature="0" />
  <path
     d="m 76.234791,22.894204 c -0.20115,2.112 -0.88135,2.83016 -3.07259,2.38588 a 49.82178,49.82178 0 0 0 -7.02777,-0.4866 c -2.95568,-0.16955 -3.60476,-1.16724 -2.67241,-3.85532 1.04889,-3.02427 4.86572,-10.81059 5.8136,-11.6474701 a 21.30189,21.30189 0 0 1 1.83989,2.6130001 c 1.2129,2.39245 2.31352,4.84059 3.44522,7.27271 0.57344,1.23233 1.11698,2.47809 1.67406,3.7178 z m -7.47971,-8.66438 c -0.98908,2.73148 -1.76128,4.86391 -2.63716,7.28267 l 6.6314,0.16876 c -1.28862,-2.40399 -2.47753,-4.62194 -3.99424,-7.45143 z"
     id="path10"
     inkscape:connector-curvature="0" />
  <path
     d="m 57.436411,38.954174 c 0.04168,-2.24136 1.57261,-3.88444 3.47466,-3.72908 a 3.87841,3.87841 0 0 1 3.5343,3.9483 c -0.09627,1.751 -2.12242,4.01551 -3.57955,4.0007 -1.88139,-0.01917 -3.47115,-1.97535 -3.42941,-4.21992 z"
     id="path12"
     inkscape:connector-curvature="0" />
  <path
     d="m 31.420321,38.305274 c -0.10581,2.37372 -1.25471,3.60543 -3.30312,3.541 -2.13713,-0.06719 -3.53679,-1.72446 -3.36092,-4.17644 0.12882,-1.79572 0.44947,-3.68273 2.77972,-3.7716 2.1492,-0.08188 3.98577,2.13076 3.88432,4.40704 z"
     id="path14"
     inkscape:connector-curvature="0" />
</svg>
