<?xml version="1.0" encoding="UTF-8" standalone="no"?>
<svg
   xmlns:dc="http://purl.org/dc/elements/1.1/"
   xmlns:cc="http://creativecommons.org/ns#"
   xmlns:rdf="http://www.w3.org/1999/02/22-rdf-syntax-ns#"
   xmlns:svg="http://www.w3.org/2000/svg"
   xmlns="http://www.w3.org/2000/svg"
   xmlns:sodipodi="http://sodipodi.sourceforge.net/DTD/sodipodi-0.dtd"
   xmlns:inkscape="http://www.inkscape.org/namespaces/inkscape"
   data-name="Слой 1"
   viewBox="0 0 96.686501 90.02401"
   x="0px"
   y="0px"
   version="1.1"
   id="svg60"
   sodipodi:docname="fat_cat.svg"
   width="96.686501"
   height="90.02401"
   inkscape:version="0.92.5 (2060ec1f9f, 2020-04-08)">
  <metadata
     id="metadata66">
    <rdf:RDF>
      <cc:Work
         rdf:about="">
        <dc:format>image/svg+xml</dc:format>
        <dc:type
           rdf:resource="http://purl.org/dc/dcmitype/StillImage" />
        <dc:title>cat-01</dc:title>
      </cc:Work>
    </rdf:RDF>
  </metadata>
  <defs
     id="defs64" />
  <sodipodi:namedview
     pagecolor="#ffffff"
     bordercolor="#666666"
     borderopacity="1"
     objecttolerance="10"
     gridtolerance="10"
     guidetolerance="10"
     inkscape:pageopacity="0"
     inkscape:pageshadow="2"
     inkscape:window-width="1280"
     inkscape:window-height="670"
     id="namedview62"
     showgrid="false"
     inkscape:zoom="2.6700352"
     inkscape:cx="50.310768"
     inkscape:cy="53.736494"
     inkscape:window-x="0"
     inkscape:window-y="24"
     inkscape:window-maximized="1"
     inkscape:current-layer="svg60" />
  <title
     id="title2">cat-01</title>
  <g
     id="g54"
     transform="translate(-1.6395849,-4.9854969)">
    <path
       d="m 89.77353,46.18872 c -0.37119,0.79876 -0.843,1.64793 -1.16579,2.55044 a 3.46765,3.46765 0 0 1 -2.28853,2.30584 1.35693,1.35693 0 0 1 -0.097,-1.90539 c 0.53693,-0.85773 0.8948,-1.82534 1.39048,-2.71167 0.69628,-1.24505 1.50808,-2.42822 2.15923,-3.695 a 32.05578,32.05578 0 0 0 1.70823,-3.89848 41.42493,41.42493 0 0 0 1.32339,-4.55035 21.73536,21.73536 0 0 0 0.54066,-6.65134 c -0.06744,-0.84028 -0.15285,-1.67955 -0.19793,-2.521 a 0.598,0.598 0 0 0 -0.73547,-0.60474 7.64909,7.64909 0 0 0 -3.05484,0.46692 c -1.22969,0.53365 -2.60276,0.72567 -3.878,1.16866 a 45.7494,45.7494 0 0 0 -4.5,1.77968 39.62469,39.62469 0 0 0 -4.07415,2.27649 c -0.78957,0.49338 -1.46148,1.17223 -2.208,1.73905 a 1.44,1.44 0 0 1 -0.781,0.33156 0.95565,0.95565 0 0 1 -0.75154,-0.33451 0.78308,0.78308 0 0 1 0.1531,-1.16 q 0.96407,-0.59238 1.91494,-1.20607 c 0.25137,-0.16321 0.48051,-0.36063 0.88451,-0.66769 -0.7169,-0.33453 -1.27289,-0.597 -1.83153,-0.8538 A 14.118,14.118 0 0 1 72.58103,27.25889 10.73234,10.73234 0 0 0 68.8388,25.75007 c -1.01609,-0.19619 -2.04493,-0.32778 -3.06975,-0.47676 -2.05985,-0.29943 -4.119,-0.60418 -6.18187,-0.88182 -1.65081,-0.22218 -3.30988,-0.2741 -4.95782,-0.64851 a 37.54645,37.54645 0 0 0 -11.00686,-0.75323 18.63656,18.63656 0 0 1 -3.47913,-0.252 0.76331,0.76331 0 0 1 -0.758,-0.95552 0.712,0.712 0 0 1 1.08874,-0.49646 c 1.81763,0.81948 3.65509,0.25989 5.49,0.16573 a 27.0442,27.0442 0 0 1 6.36558,0.25332 c 2.91661,0.537 5.80018,1.31448 8.83964,1.21434 a 26.29676,26.29676 0 0 1 4.85274,0.7621 c 0.95258,0.15249 1.91181,0.26343 2.86819,0.392 a 23.26638,23.26638 0 0 1 6.11004,2.19964 19.422,19.422 0 0 1 2.6887,1.76228 c 0.71481,-0.39661 1.68678,-0.86249 2.58018,-1.44824 a 19.43457,19.43457 0 0 1 4.7305,-1.99731 c 1.75034,-0.57636 3.474,-1.23378 5.22534,-1.807 a 3.41342,3.41342 0 0 1 3.745,0.60466 3.722,3.722 0 0 1 1.12489,2.66646 c 0.01408,1.18963 -0.02172,2.3836 -0.11245,3.56982 a 43.41755,43.41755 0 0 1 -0.50856,4.74515 44.81009,44.81009 0 0 1 -1.24724,4.54512 c -0.3708,1.2324 -0.7608,2.463 -1.22985,3.66 a 8.2464,8.2464 0 0 1 -0.97564,1.46837 c 1.39665,0.51952 1.84324,1.79469 2.41057,2.98414 0.67941,1.42439 1.39237,2.83276 2.07412,4.25605 a 7.08582,7.08582 0 0 1 0.49609,1.28175 c 0.37724,1.47138 0.70728,2.95484 1.08289,4.42666 0.09419,0.36907 0.31568,0.70389 0.43464,1.06881 a 7.58036,7.58036 0 0 1 0.3655,1.3953 c 0.17483,1.41462 0.35824,2.83206 0.43418,4.25395 a 13.03444,13.03444 0 0 1 -0.62484,4.43355 c -0.37341,1.25737 -0.38412,2.61827 -0.6322,3.9187 a 17.38652,17.38652 0 0 1 -0.65218,2.0632 20.06278,20.06278 0 0 1 -3.91977,7.14694 c -1.19543,1.36482 -2.39862,2.7262 -3.66661,4.02233 a 9.82728,9.82728 0 0 1 -1.68923,1.1176 22.72389,22.72389 0 0 1 -5.91392,2.638 c -1.70952,0.52819 -3.33846,1.31167 -5.03287,1.89574 a 19.41729,19.41729 0 0 1 -5.70091,1.305 9.40769,9.40769 0 0 0 -1.24858,0.27638 c -2.24153,0.39 -4.48142,0.792 -6.72945,1.14117 -1.052,0.16342 -2.12269,0.20328 -3.182,0.3246 -1.22688,0.14052 -2.45048,0.30958 -3.67563,0.46524 -1.10256,0.14009 -2.2018,0.32977 -3.3088,0.40551 a 35.44294,35.44294 0 0 1 -4.34514,0.12885 c -1.81051,-0.09937 -3.60929,-0.39933 -5.41593,-0.58575 -1.49171,-0.15393 -2.86761,-0.7653 -4.379,-0.955 a 16.36788,16.36788 0 0 1 -4.38362,-1.71231 c -1.84627,-0.83213 -3.65691,-1.743 -5.48837,-2.60841 -1.86918,-0.88326 -3.77562,-1.69406 -5.60508,-2.65239 a 23.69252,23.69252 0 0 1 -2.58585,-1.853 C 19.49012,84.16267 18.84036,83.69763 18.16127,83.28233 16.73945,82.41282 15.28175,81.60104 13.87476,80.70882 A 6.33024,6.33024 0 0 1 12.80425,79.62069 C 11.07145,77.78259 9.40663,75.87413 7.59002,74.12309 5.81216,72.40942 4.98888,70.21992 4.11535,68.02551 3.71327,67.01543 3.20719,66.03992 2.88727,65.00574 2.51211,63.7929 2.27696,62.53574 2.00105,61.29343 A 29.24362,29.24362 0 0 1 1.704,54.76979 C 1.70951,53.3254 1.68921,51.87446 1.82228,50.4396 a 8.55186,8.55186 0 0 1 0.68536,-2.29383 c 0.97415,-2.44735 1.899,-4.92113 3.02605,-7.29785 a 14.35986,14.35986 0 0 1 2.26154,-3.06838 c 1.01393,-1.17029 2.23852,-2.16935 3.16973,-3.396 a 8.81637,8.81637 0 0 0 1.242,-2.83474 26.70435,26.70435 0 0 0 0.64779,-3.34272 c 0.25229,-1.57587 0.37721,-3.17711 0.71545,-4.733 0.43327,-1.993 0.55755,-4.08517 1.6653,-5.89236 a 1.1233,1.1233 0 0 0 0.17839,-0.4665 25.94589,25.94589 0 0 1 1.52531,-5.86742 6.28155,6.28155 0 0 1 0.49277,-0.88387 c 0.32129,-0.61475 0.6001,-1.25393 0.95341,-1.84922 0.50084,-0.84393 1.06125,-1.65234 1.57661,-2.488 a 1.572,1.572 0 0 0 0.14162,-0.48014 c 0.76981,-0.16235 1.56385,-0.33645 2.3612,-0.49386 a 2.06763,2.06763 0 0 1 0.71707,-0.05671 12.19728,12.19728 0 0 1 1.93537,0.4131 6.26331,6.26331 0 0 1 1.71334,1.34321 27.087,27.087 0 0 1 3.036,3.45862 c 1.54011,1.70933 2.87,3.60606 4.34319,5.37829 1.46994,1.76831 3.0045,3.483 4.5157,5.21686 a 2.11376,2.11376 0 0 1 -0.05487,1.7338 0.86992,0.86992 0 0 1 -1.257,-0.32556 c -0.80757,-0.96955 -1.59267,-1.95778 -2.3876,-2.93785 -1.25028,-1.54142 -2.53439,-3.05679 -3.74318,-4.63007 -1.40515,-1.82884 -2.73171,-3.71787 -4.11734,-5.562 a 7.99968,7.99968 0 0 0 -3.1084,-2.45444 2.47557,2.47557 0 0 0 -3.18689,0.91718 10.83394,10.83394 0 0 0 -1.71742,3.25852 c -0.18939,0.68574 -0.6456,1.29341 -0.88766,1.96986 -0.55235,1.54357 -1.09025,3.0951 -1.551,4.66772 -0.36552,1.24753 -0.61254,2.53008 -0.9033,3.79911 -0.25071,1.09419 -0.52425,2.18482 -0.72545,3.28836 -0.46027,2.52444 -0.88608,5.0552 -1.31773,7.58478 a 2.997,2.997 0 0 0 -0.0351,2.11509 0.51258,0.51258 0 0 1 -0.1965,0.339 46.24025,46.24025 0 0 0 -3.85574,3.55526 25.51216,25.51216 0 0 0 -2.80312,4.19087 21.77516,21.77516 0 0 0 -1.37169,3.28716 28.44663,28.44663 0 0 0 -1.78112,4.59374 35.34313,35.34313 0 0 0 -0.41466,5.5419 c -0.03913,0.82095 0.11077,1.65308 0.04759,2.4703 -0.20281,2.62219 0.64052,5.03519 1.4377,7.45176 0.46928,1.42258 1.03959,2.81415 1.61931,4.19667 a 4.75894,4.75894 0 0 0 0.84492,1.24943 c 1.59611,1.81381 3.15422,3.66745 4.84727,5.38739 a 35.74779,35.74779 0 0 0 3.86181,3.289 c 1.68752,1.28483 3.41451,2.52764 5.19941,3.67166 1.4426,0.92462 2.98652,1.69428 4.50308,2.49957 1.81454,0.96351 3.61853,1.95553 5.48378,2.81166 a 36.38759,36.38759 0 0 0 3.56019,1.19863 c 0.7737,0.26174 1.549,0.52428 2.30447,0.83321 a 29.277,29.277 0 0 0 5.3935,1.79378 23.76835,23.76835 0 0 0 5.57912,0.75331 c 0.74681,-0.03052 1.506,0.16968 2.24812,0.11332 1.43823,-0.10924 2.86776,-0.33032 4.30206,-0.49491 0.39994,-0.0459 0.8049,-0.04642 1.20591,-0.08493 0.795,-0.07634 1.59107,-0.14749 2.38231,-0.25366 0.5884,-0.079 1.16661,-0.2353 1.7553,-0.31065 0.67229,-0.086 1.36148,-0.06641 2.02428,-0.19266 a 5.96053,5.96053 0 0 0 1.92933,-0.596 c 1.01079,-0.60328 2.12588,-0.33316 3.17674,-0.55654 1.57617,-0.335 3.22884,-0.34151 4.78222,-0.74485 2.20683,-0.573 4.36262,-1.35168 6.52218,-2.09486 a 46.20905,46.20905 0 0 0 5.30207,-1.99668 16.04365,16.04365 0 0 0 5.74308,-3.968 c 1.012,-1.24187 2.16187,-2.38086 3.08386,-3.6835 a 13.94143,13.94143 0 0 0 1.645,-3.23274 37.15217,37.15217 0 0 0 2.24635,-10.50382 19.81012,19.81012 0 0 0 -0.70536,-6.34231 c -0.47037,-1.7699 -0.79884,-3.57715 -1.21647,-5.3617 a 5.93153,5.93153 0 0 0 -0.45171,-1.1455 C 93.35796,50.6002 92.69041,49.33201 92.13081,48.01761 a 2.45036,2.45036 0 0 0 -2.35728,-1.82889 z"
       id="path4"
       inkscape:connector-curvature="0" />
    <path
       d="m 51.62461,68.97886 c 0.95092,0.48422 1.8038,0.8957 2.63419,1.34838 a 2.66259,2.66259 0 0 1 1.13666,1.78594 1.10943,1.10943 0 0 0 0.97528,0.90212 c 1.68741,0.31967 3.36707,0.6966 5.02782,1.13437 a 27.84071,27.84071 0 0 1 3.1312,1.09182 1.7471,1.7471 0 0 1 0.48667,0.649 1.90525,1.90525 0 0 1 -0.78333,0.185 c -0.98911,-0.24228 -1.95033,-0.602 -2.9425,-0.82749 -1.67539,-0.3808 -3.36609,-0.69464 -5.05208,-1.02791 a 1.01172,1.01172 0 0 0 -0.33638,0.04992 c -0.11567,1.27155 0.41217,1.74126 1.62426,1.77692 a 13.794,13.794 0 0 1 3.408,0.44761 c 2.01674,0.58445 3.98318,1.34356 5.964,2.0483 a 1.20219,1.20219 0 0 1 0.34861,0.3817 A 1.21387,1.21387 0 0 1 66.74684,79.3151 14.35377,14.35377 0 0 1 64.148,78.703 25.68981,25.68981 0 0 0 57.59292,77.14342 C 57.09133,77.08919 56.5898,77.03465 56.12464,76.9842 a 0.7378,0.7378 0 0 0 -0.13823,0.14951 c -0.42178,1.11169 -0.4421,1.17 0.66679,1.5689 1.61213,0.58 3.26742,1.03935 4.88419,1.60746 a 13.13476,13.13476 0 0 1 1.58168,0.84868 c 0.34276,0.17725 0.708,0.31051 1.0551,0.48 0.19324,0.09438 0.36987,0.22274 0.554,0.33579 l -0.07936,0.23369 c -0.55271,-0.09708 -1.11752,-0.15031 -1.656,-0.2991 -1.95546,-0.54038 -3.90254,-1.11121 -5.85154,-1.67483 a 5.13248,5.13248 0 0 1 -0.81574,-0.28069 c -1.089,-0.52738 -1.80609,0.151 -2.51995,0.77972 a 2.94645,2.94645 0 0 1 -2.65645,1.11881 2.41568,2.41568 0 0 1 0.26566,0.87186 1.83118,1.83118 0 0 1 -0.41622,0.8919 16.82289,16.82289 0 0 1 -4.61783,3.55087 22.38248,22.38248 0 0 1 -3.002,1.56311 12.13134,12.13134 0 0 1 -2.78673,0.8609 A 4.06841,4.06841 0 0 1 37.60794,88.45445 14.18681,14.18681 0 0 1 33.8895,83.72426 5.33485,5.33485 0 0 1 33.2338,79.17583 5.64988,5.64988 0 0 1 31.74988,78.44 2.45447,2.45447 0 0 1 31.29747,77.1936 5.18453,5.18453 0 0 1 31.14602,75.74989 c 0.053,-0.709 -0.36255,-0.83483 -0.904,-0.9538 q -2.26349,-0.49731 -4.51393,-1.05316 c -0.82149,-0.20357 -1.63452,-0.44685 -2.44049,-0.706 a 14.40875,14.40875 0 0 1 -2.92388,-1.06826 4.30429,4.30429 0 0 0 -1.19,-0.63425 C 18.79972,71.2497 18.41521,71.21193 18.0364,71.14721 17.62307,71.0766 17.21095,70.99892 16.79831,70.92432 l 0.03882,-0.42424 a 10.2154,10.2154 0 0 1 1.07273,0.0074 8.13567,8.13567 0 0 1 1.42635,0.24187 c 2.53219,0.74177 5.05259,1.524 7.58677,2.25874 1.09262,0.31679 2.20189,0.58581 3.31632,0.81454 0.79934,0.16406 0.84385,0.08335 1.16262,-1.17616 C 30.4556,72.25209 29.50467,71.84939 28.54867,71.45918 27.54079,71.0478 26.5219,70.66299 25.51902,70.23995 24.29131,69.72207 23.04537,69.23484 21.86173,68.62815 20.38458,67.87101 18.95428,67.02029 17.52251,66.17809 A 8.26486,8.26486 0 0 1 16.32111,65.24 1.26984,1.26984 0 0 1 16.11339,64.795 1.09212,1.09212 0 0 1 16.65582,64.70125 c 0.53227,0.27788 1.02636,0.62761 1.5483,0.92679 a 88.4656,88.4656 0 0 0 10.75392,4.78039 c 0.979,0.39973 1.981,0.74311 3.016,1.12858 l 0.37341,-0.89855 c -0.61363,-0.42442 -1.20584,-0.87544 -1.83716,-1.26278 a 24.517,24.517 0 0 1 -4.92494,-3.70564 c -0.6555,-0.6763 -1.379,-1.29425 -1.97464,-2.01845 a 11.7417,11.7417 0 0 1 -1.00879,-1.74576 l -1.13774,0.36013 -0.2388,-0.2053 a 2.40254,2.40254 0 0 1 0.45855,-1.06225 11.80295,11.80295 0 0 1 5.89525,-2.09069 2.41337,2.41337 0 0 1 0.87365,0.34981 l -0.04183,0.27114 -5.08332,1.83477 c 2.20716,4.07668 5.998,6.08589 9.61906,8.27726 0.70824,-0.74254 1.317,-1.42724 1.9762,-2.05939 a 3.74656,3.74656 0 0 1 2.61455,-0.92608 2.47094,2.47094 0 0 0 1.75857,-0.60372 c -2.20683,-2.92 -3.42693,-5.98787 -2.61127,-9.7013 A 14.90116,14.90116 0 0 1 34.85373,56.43035 10.06762,10.06762 0 0 1 30.396,54.60188 c -1.3372,-0.82776 -2.613,-1.76137 -3.87257,-2.70612 a 4.24716,4.24716 0 0 1 -1.38592,-4.94534 4.02811,4.02811 0 0 1 2.12733,-1.89752 5.54623,5.54623 0 0 1 4.72454,0.0492 c 1.04748,0.40394 2.10334,0.78779 3.13935,1.21923 a 4.34651,4.34651 0 0 1 1.17525,0.69029 21.7866,21.7866 0 0 1 2.76938,2.58619 4.07431,4.07431 0 0 1 -0.45742,5.189 c -0.58583,0.55754 -0.34028,1.28528 -0.4852,1.9198 -0.66264,2.90181 0.63967,5.279 2.18572,7.56911 0.16564,0.24535 0.29027,0.51835 0.40085,0.71865 0.72542,-0.13821 1.50077,-0.25166 2.2581,-0.43811 a 6.71149,6.71149 0 0 1 3.43081,0.35858 c 1.1867,0.32193 2.33891,0.77 3.51083,1.14857 a 0.75414,0.75414 0 0 0 0.54758,0.03217 24.38824,24.38824 0 0 0 2.84822,-2.23218 30.1589,30.1589 0 0 0 3.07567,-3.60708 23.00379,23.00379 0 0 0 1.57166,-2.97311 2.08047,2.08047 0 0 1 0.41584,-0.74687 14.226,14.226 0 0 1 4.9738,-2.69216 12.39011,12.39011 0 0 1 5.93324,0.08365 c 0.48588,0.11425 0.90564,0.48877 1.38708,0.65039 a 1.99489,1.99489 0 0 0 1.00793,0.03162 c 1.4584,-0.31373 2.894,-0.77834 4.36614,-0.96677 a 12.13909,12.13909 0 0 1 2.74952,0.28574 4.064,4.064 0 0 1 2.14168,0.77389 10.4513,10.4513 0 0 0 1.845,0.78434 c 1.022,0.49209 2.0304,1.01463 3.02685,1.55684 a 7.11613,7.11613 0 0 1 2.00284,1.24768 23.53967,23.53967 0 0 1 1.86929,2.8395 15.55727,15.55727 0 0 0 1.42161,2.07361 3.35,3.35 0 0 0 2.05681,1.49246 0.66933,0.66933 0 0 1 0.29471,0.56778 0.7589,0.7589 0 0 1 -0.46482,0.52333 3.54512,3.54512 0 0 1 -1.78653,-0.3467 19.61175,19.61175 0 0 1 -2.34322,-2.3349 1.63838,1.63838 0 0 1 -0.29409,-0.65432 9.76526,9.76526 0 0 0 -1.94986,-2.98786 4.33029,4.33029 0 0 0 -1.53592,-1.04772 q -2.2687,-1.14528 -4.58363,-2.198 a 9.96114,9.96114 0 0 0 -2.13049,-0.80531 10.41832,10.41832 0 0 0 -4.60661,0.20588 13.90822,13.90822 0 0 0 -1.64011,0.7287 11.377,11.377 0 0 1 -1.3388,0.332 c 0.11465,1.1577 -0.98847,1.62948 -1.79142,2.22307 a 13.24449,13.24449 0 0 1 -4.868,2.01082 10.88882,10.88882 0 0 1 -3.4592,0.2258 7.42616,7.42616 0 0 1 -2.15407,-0.989 c -0.69549,0.8403 -1.434,1.75165 -2.19441,2.64429 -0.47114,0.553 -1.00086,1.05716 -1.45908,1.62 a 7.9418,7.9418 0 0 1 -2.27792,2.20106 c -0.911,0.49958 -1.52316,1.33927 -0.94973,2.36281 z M 34.09753,79.46337 a 4.81333,4.81333 0 0 1 0.47341,0.73925 c 0.203,0.45227 0.29754,0.95494 0.51414,1.39915 a 18.32339,18.32339 0 0 0 1.88929,3.22489 10.19181,10.19181 0 0 0 3.01318,2.85952 1.07781,1.07781 0 0 0 0.74048,0.18912 25.4856,25.4856 0 0 0 3.01407,-1.24513 c 1.45688,-0.75611 2.89031,-1.56859 4.27206,-2.45341 A 7.20107,7.20107 0 0 0 49.745,82.55192 c 0.40951,-0.52328 0.17737,-0.74246 -0.46656,-0.88347 -2.536,-0.5553 -5.05877,-1.16073 -5.9853,-4.09252 -0.16269,-0.51485 -0.5042,-0.59987 -0.84819,-0.16824 a 6.08925,6.08925 0 0 1 -4.347,2.08659 31.0105,31.0105 0 0 1 -4.00042,-0.03091 z M 43.51048,71.703 C 42.43334,70.85343 41.28882,69.98193 40.18227,69.06464 A 1.84794,1.84794 0 0 0 38.36,68.49351 2.21287,2.21287 0 0 1 37.5417,68.73685 c -1.45173,-0.2011 -2.01983,0.85918 -2.74852,1.79229 0.171,0.10783 0.28866,0.18567 0.40974,0.25787 a 1.23144,1.23144 0 0 1 0.42137,1.89091 0.56073,0.56073 0 0 1 -0.34843,0.20842 10.18445,10.18445 0 0 1 -1.51032,0.11635 c -0.592,-0.01818 -0.83231,0.227 -0.83508,0.95278 l 2.3754,-0.86424 a 1.57549,1.57549 0 0 1 -1.041,1.67783 c -0.3826,0.13824 -0.822,0.12049 -1.203,0.26157 a 0.88348,0.88348 0 0 0 -0.51994,0.52088 2.29936,2.29936 0 0 0 1.41592,2.068 13.61963,13.61963 0 0 0 2.41585,0.37092 6.23327,6.23327 0 0 0 4.497,-1.40555 6.91366,6.91366 0 0 0 2.26112,-3.4071 C 43.2672,72.63446 43.41014,72.093 43.51048,71.703 Z m 9.47579,7.50344 -0.83292,-1.281 a 1.86714,1.86714 0 0 1 -1.06568,-1.55219 0.58944,0.58944 0 0 1 0.7235,-0.61863 6.95607,6.95607 0 0 1 0.96372,0.37821 1.05292,1.05292 0 0 1 1.36119,-0.7132 4.67276,4.67276 0 0 0 -0.01891,-1.00254 0.67868,0.67868 0 0 0 -0.41366,-0.45255 4.782,4.782 0 0 0 -1.66387,0.3793 A 1.02171,1.02171 0 0 1 50.5635,73.89 2.11064,2.11064 0 0 1 50.57924,72.8444 l 0.21909,0.1869 3.04229,-0.45627 a 9.91925,9.91925 0 0 0 -0.9783,-1.08693 c -1.06933,-0.85658 -2.38658,-0.80647 -3.653,-0.9203 a 1.01891,1.01891 0 0 0 -0.34042,0.104 c -0.50159,0.1548 -1.00721,0.29756 -1.50422,0.46582 -0.60483,0.20476 -1.20248,0.43074 -1.883,0.67632 0.473,0.62426 0.52057,0.99866 -0.22249,1.15328 a 0.65507,0.65507 0 0 0 -0.39976,0.47768 17.67881,17.67881 0 0 0 0.06533,3.24455 2.90324,2.90324 0 0 0 1.02392,1.67072 7.62344,7.62344 0 0 0 5.53432,1.46545 1.50129,1.50129 0 0 0 1.50327,-0.61918 z M 49.69405,68.45726 a 2.30878,2.30878 0 0 0 -0.65259,-0.66512 c -2.66238,-1.02711 -5.33271,-2.12821 -8.30487,-0.57714 1.00866,0.8227 1.90759,1.62278 2.87813,2.32368 a 2.03167,2.03167 0 0 0 2.20563,0.40506 c 1.19212,-0.54713 2.45077,-0.94928 3.8737,-1.48648 z m -17.87678,-21.713 c -0.69492,-0.17 -1.16972,-0.26151 -1.62907,-0.40316 a 3.411,3.411 0 0 0 -3.55661,1.17665 1.20538,1.20538 0 0 0 0.08442,1.7026 10.18293,10.18293 0 0 1 0.77846,0.83163 c 0.3665,0.46042 0.70245,0.94516 1.05135,1.4196 l 0.26262,-0.06524 a 5.43475,5.43475 0 0 1 3.00883,-4.66213 z m 1.79949,7.47112 c 0.44375,0.10028 0.83029,0.20192 1.22228,0.27353 a 2.788,2.788 0 0 0 2.90019,-1.608 3.03118,3.03118 0 0 0 -0.12651,-2.0726 c -0.25747,-1.25618 -1.42851,-1.5441 -2.18373,-2.31917 0.2142,2.21798 -0.07372,4.14568 -1.81224,5.72619 z m 29.629,4.89726 -0.57314,-3.22746 c -0.97537,0.60856 -1.95051,1.13 -2.81872,1.7918 -0.50863,0.38768 -0.27457,1.03373 0.29448,1.36412 a 3.96381,3.96381 0 0 0 3.09735,0.07149 z m 2.88724,-3.74082 1.33754,2.42453 1.847,-1.685 -0.05054,-0.27162 z m -13.37439,21.24729 -0.12385,0.647 1.30006,0.38257 0.15168,-0.75273 z"
       id="path6"
       inkscape:connector-curvature="0" />
    <path
       d="m 20.65741,29.69773 c 0.16962,-1.64293 0.277,-3.29531 0.52445,-4.92644 0.31555,-2.08029 0.79478,-4.13586 1.10592,-6.21667 0.19658,-1.31467 0.23618,-2.65489 0.30513,-3.98577 a 1.18432,1.18432 0 0 1 1.02121,-1.34867 1.05386,1.05386 0 0 1 1.20089,0.98943 1.1345,1.1345 0 0 0 0.43146,0.65348 c 0.61271,0.47161 1.29348,0.85785 1.88641,1.35109 a 6.71394,6.71394 0 0 1 1.12534,1.26019 13.35591,13.35591 0 0 0 1.12478,1.75676 c 0.92478,0.92544 1.10017,2.18771 1.67868,3.26193 a 8.97069,8.97069 0 0 0 0.501,0.9585 5.02724,5.02724 0 0 1 0.98957,3.39543 3.10948,3.10948 0 0 1 -1.667,2.58154 30.52571,30.52571 0 0 1 -6.73757,3.05547 2.99149,2.99149 0 0 1 -2.44336,-0.15232 0.91943,0.91943 0 0 1 -0.418,-0.35721 c -0.19811,-0.73924 -0.34567,-1.492 -0.511,-2.24 z m 3.44853,-13.69489 a 5.09848,5.09848 0 0 0 -0.21873,0.9447 c -0.02036,2.97925 -0.97931,5.82819 -1.21038,8.77327 -0.11883,1.5144 -0.09111,3.04156 -0.09572,4.56307 a 0.72537,0.72537 0 0 0 1.00605,0.72248 6.51361,6.51361 0 0 0 1.59807,-0.474 c 1.48628,-0.71221 2.9947,-1.40035 4.39847,-2.25547 A 2.49651,2.49651 0 0 0 30.58,24.715 20.39212,20.39212 0 0 1 29.45384,22.59908 c -0.46926,-0.8982 -0.92344,-1.80465 -1.41178,-2.6923 -0.24421,-0.44391 -0.60438,-0.82852 -0.81744,-1.28421 -0.6267,-1.34049 -1.91305,-1.8318 -3.11868,-2.61973 z"
       id="path8"
       inkscape:connector-curvature="0" />
    <path
       d="m 78.89246,34.2871 a 13.304,13.304 0 0 0 1.50569,-0.70209 30.1166,30.1166 0 0 0 2.53167,-1.68989 33.186,33.186 0 0 0 2.7309,-2.23368 2.59732,2.59732 0 0 1 2.80164,-0.61824 1.50854,1.50854 0 0 1 0.63529,0.7998 12.10523,12.10523 0 0 1 0.04043,6.429 c -0.11653,0.46847 -0.20136,0.94482 -0.30137,1.41742 a 7.40843,7.40843 0 0 1 -3.14959,5.00322 14.9764,14.9764 0 0 1 -3.53512,1.19042 0.38278,0.38278 0 0 1 -0.33359,-0.09571 c -0.6249,-0.78528 -1.28983,-1.547 -1.83389,-2.38641 -0.894,-1.37932 -1.71823,-2.80453 -2.5456,-4.2257 a 3.91963,3.91963 0 0 1 -0.47443,-1.20431 1.42136,1.42136 0 0 1 0.24732,-0.75936 2.94284,2.94284 0 0 0 0.32915,-0.35291 c 0.13019,-0.62539 0.52034,-0.75986 1.3515,-0.57156 z m -0.10052,1.8599 a 5.19527,5.19527 0 0 0 0.28214,0.67145 c 0.69925,1.26336 1.43128,2.50882 2.11579,3.78 a 2.03772,2.03772 0 0 0 1.71036,1.26994 4.7514,4.7514 0 0 0 3.47614,-2.35573 11.07218,11.07218 0 0 0 1.28736,-4.06013 c 0.18238,-1.53158 0.1751,-3.08576 0.25478,-4.71678 a 2.55875,2.55875 0 0 0 -0.65,0.13733 c -1.116,0.68371 -2.22059,1.38609 -3.33154,2.07807 -1.66112,1.03466 -3.32466,2.0654 -5.14503,3.19585 z"
       id="path10"
       inkscape:connector-curvature="0" />
    <path
       d="m 57.97128,30.07075 a 4.86108,4.86108 0 0 1 -3.13379,1.65444 0.736,0.736 0 0 0 -0.42962,0.52556 c -0.37575,2.61107 -0.718,5.22695 -1.07319,7.841 q -0.30288,2.22885 -0.61969,4.45581 a 0.7722,0.7722 0 0 1 -1.03977,0.77934 0.78442,0.78442 0 0 1 -0.536,-1.08866 c 0.46734,-2.9127 0.952,-5.82313 1.36949,-8.74309 0.18106,-1.26624 0.2307,-2.55256 0.30219,-3.83188 A 0.83887,0.83887 0 0 0 52.53,31.04047 c -0.48266,-0.36131 -1.04806,-0.61559 -1.514,-0.99423 a 1.79248,1.79248 0 0 1 -0.52312,-0.89027 0.88712,0.88712 0 0 1 0.55134,-0.45368 0.84257,0.84257 0 0 1 1.11827,0.14949 3.31172,3.31172 0 0 0 4.7025,0.158 2.791,2.791 0 0 1 1.09772,-0.56417 0.84333,0.84333 0 0 1 0.73134,0.38588 1.70113,1.70113 0 0 1 -0.34088,0.83688 0.94205,0.94205 0 0 1 -0.19568,0.20381 z"
       id="path12"
       inkscape:connector-curvature="0" />
    <path
       d="m 57.97128,30.07075 0.18614,-0.19864 a 1.32026,1.32026 0 0 1 1.47248,0.21034 5.10477,5.10477 0 0 1 2.0038,3.01705 c 0.27255,0.97694 0.66032,1.92827 0.85424,2.9189 a 25.8659,25.8659 0 0 1 0.4111,3.48179 c 0.05827,1.01636 -0.03013,2.04051 -0.03628,3.06132 -0.01039,1.72914 0.01624,3.4589 -0.02317,5.18724 A 0.86663,0.86663 0 0 1 61.8798,48.61487 0.68554,0.68554 0 0 1 61.04,47.866 c 0.04734,-1.76772 0.16754,-3.53348 0.21711,-5.30117 0.023,-0.82131 -0.12515,-1.65022 -0.07068,-2.46734 a 16.4635,16.4635 0 0 0 -1.49195,-7.3658 11.17486,11.17486 0 0 0 -1.42273,-1.96775 3.59223,3.59223 0 0 1 -0.30047,-0.69319 z"
       id="path14"
       inkscape:connector-curvature="0" />
    <path
       d="m 76.639,78.30629 c -0.90054,0 -1.601,-0.016 -2.3003,0.0055 a 0.5767,0.5767 0 0 1 -0.67984,-0.65722 c 0.03592,-0.39288 0.0298,-0.93992 0.70052,-0.88663 a 1.59072,1.59072 0 0 1 0.43611,0.01231 c 1.28416,0.51964 2.10354,-0.25356 2.93822,-1.02168 0.26535,-0.24422 0.60991,-0.40675 0.85787,-0.66469 0.80263,-0.8349 1.85437,-1.41509 2.6068,-2.243 a 8.15755,8.15755 0 0 0 2.34574,-3.4421 0.87281,0.87281 0 0 1 1.23656,-0.65343 c 0.11592,0.03344 0.231,0.07018 0.34788,0.09994 0.26573,0.06766 0.53236,0.13193 0.7986,0.19757 -0.168,0.27806 -0.33682,0.55557 -0.50366,0.83431 -0.34008,0.56811 -0.67066,1.14216 -1.02183,1.7033 -0.19111,0.30537 -0.41069,0.59366 -0.62733,0.88221 a 24.92878,24.92878 0 0 1 -4.5215,4.17605 16.14412,16.14412 0 0 1 -1.4345,1.10568 8.50376,8.50376 0 0 1 -1.17934,0.55183 z"
       id="path16"
       inkscape:connector-curvature="0" />
    <path
       d="m 48.66777,30.60867 a 3.79065,3.79065 0 0 1 -0.99589,-0.27714 1.12726,1.12726 0 0 0 -1.62893,0.24679 c -1.57835,1.96122 -3.22106,3.88764 -4.60084,5.9843 a 11.72767,11.72767 0 0 0 -1.13611,3.56512 4.06028,4.06028 0 0 0 0.11306,1.30085 1.46724,1.46724 0 0 1 -1.56952,-1.73394 12.11211,12.11211 0 0 1 2.93033,-6.21118 c 0.9612,-1.0853 1.7436,-2.32884 2.70376,-3.4152 a 3.8716,3.8716 0 0 1 1.81161,-1.31362 c 1.39476,-0.29576 1.78216,0.09279 2.37253,1.85402 z"
       id="path18"
       inkscape:connector-curvature="0" />
    <path
       d="m 43.69814,36.25419 c 0.70189,-1.0361 1.14092,-1.08586 1.9965,-0.38466 a 5.04071,5.04071 0 0 1 2.11967,4.03259 2.94806,2.94806 0 0 0 0.23482,0.91371 c 0.41756,1.21636 -0.10117,2.333 -0.34106,3.48374 a 20.12439,20.12439 0 0 0 -0.46593,2.78307 c -0.03145,0.48686 0.33008,0.97911 -0.21117,1.4217 -0.2631,0.21515 -0.34566,0.68052 -0.84655,0.39077 a 0.9941,0.9941 0 0 1 -0.6791,-1.078 c 0.287,-1.48555 0.59985,-2.96615 0.88018,-4.45292 a 4.72439,4.72439 0 0 0 0.123,-1.35384 11.79475,11.79475 0 0 0 -0.51591,-3.07 9.13888,9.13888 0 0 0 -1.65311,-2.16341 4.31711,4.31711 0 0 0 -0.64134,-0.52275 z"
       id="path20"
       inkscape:connector-curvature="0" />
    <path
       d="m 56.47723,45.209 c 0.12859,1.0043 0.27045,1.95283 0.36335,2.90615 0.04548,0.46643 0.16907,1.03578 -0.50878,1.18995 a 0.96261,0.96261 0 0 1 -1.31341,-0.85471 c -0.36938,-1.98143 -0.61848,-3.98916 0.37214,-5.85231 0.69493,-1.3071 1.29767,-2.74341 2.75561,-3.46314 a 1.97632,1.97632 0 0 1 0.8034,-0.29548 3.73067,3.73067 0 0 1 0.96362,0.26488 2.42181,2.42181 0 0 1 -0.51443,1.163 c -1.44438,0.53457 -1.85192,1.8761 -2.47492,3.01746 a 7.16248,7.16248 0 0 0 -0.44658,1.9242 z"
       id="path22"
       inkscape:connector-curvature="0" />
    <path
       d="m 65.71468,34.15441 a 2.50831,2.50831 0 0 1 0.68433,0.59213 c 0.37886,0.78178 0.66681,1.60733 1.03666,2.394 a 3.75461,3.75461 0 0 0 0.56622,0.59473 c 0.993,1.22627 1.93044,2.50151 2.98193,3.67482 a 11.11391,11.11391 0 0 0 1.97641,1.58727 c 0.6144,0.42807 0.37992,0.83676 0.092,1.29164 -0.33249,0.52526 -0.70762,0.30219 -1.04346,0.03658 a 16.40137,16.40137 0 0 1 -4.51049,-4.7616 c -0.773,-1.39654 -1.68163,-2.71753 -2.49995,-4.09 a 0.96669,0.96669 0 0 1 -0.123,-0.786 2.42769,2.42769 0 0 1 0.83935,-0.53357 z"
       id="path24"
       inkscape:connector-curvature="0" />
    <path
       d="m 17.14567,45.15551 c 1.17423,-0.11215 2.34751,-0.2853 3.5232,-0.30361 a 2.38235,2.38235 0 0 1 1.24046,0.5862 0.7148,0.7148 0 0 1 0.13613,0.695 0.84327,0.84327 0 0 1 -0.73383,0.27836 c -1.64771,-0.61984 -3.28227,-0.04658 -4.913,0.02895 a 23.54059,23.54059 0 0 0 -3.51527,0.52642 8.4156,8.4156 0 0 0 -1.67351,0.62121 0.84189,0.84189 0 0 1 -1.15243,-0.56638 0.56681,0.56681 0 0 1 0.42891,-0.8428 c 2.09255,-0.38255 4.19208,-0.727 6.28986,-1.08069 a 2.22421,2.22421 0 0 1 0.36481,-0.0026 z"
       id="path26"
       inkscape:connector-curvature="0" />
    <path
       d="m 28.86028,54.63911 a 1.26859,1.26859 0 0 1 -1.25463,0.96457 c -2.50339,0.44268 -4.99944,0.92734 -7.50484,1.35781 a 8.33867,8.33867 0 0 1 -1.99328,0.10255 0.78652,0.78652 0 0 1 -0.6861,-1.02243 c 0.11043,-0.47746 0.56532,-0.28025 0.95508,-0.28338 a 16.375,16.375 0 0 0 2.35726,-0.29519 c 1.72091,-0.26766 3.43364,-0.601 5.16189,-0.80343 a 25.71533,25.71533 0 0 1 2.96462,-0.0205 z"
       id="path28"
       inkscape:connector-curvature="0" />
    <path
       d="m 34.02453,37.54351 c -0.93,-0.24695 -1.87544,-0.44975 -2.78076,-0.76706 a 2.28493,2.28493 0 0 1 -0.67431,-0.77461 3.88829,3.88829 0 0 1 1.2092,-0.48679 4.17966,4.17966 0 0 1 1.40475,0.33519 3.66168,3.66168 0 0 0 2.94969,-0.31288 9.22558,9.22558 0 0 1 1.40973,-0.5563 0.54034,0.54034 0 0 1 0.486,0.09448 0.85445,0.85445 0 0 1 -0.01794,0.53576 0.50506,0.50506 0 0 1 -0.18868,0.21615 5.41733,5.41733 0 0 1 -3.79768,1.71606 z"
       id="path30"
       inkscape:connector-curvature="0" />
    <path
       d="M 12.21659,66.89956 A 3.03734,3.03734 0 0 1 9.74274,64.85508 C 9.3043,63.55584 8.76274,62.2917 8.29035,61.00334 a 2.26427,2.26427 0 0 1 -0.02677,-0.69127 1.59019,1.59019 0 0 1 0.81276,0.20225 19.9018,19.9018 0 0 1 0.88212,1.89459 c 0.53483,1.15994 1.06814,2.32088 1.63183,3.46676 a 1.24605,1.24605 0 0 0 0.48267,0.22271 c 0.22238,0.119 0.43477,0.25674 0.65143,0.38646 z"
       id="path32"
       inkscape:connector-curvature="0" />
    <path
       d="m 44.10967,82.43936 c -0.17154,1.03084 -0.33527,2.00882 -0.49633,2.98724 a 1.97756,1.97756 0 0 1 -0.10476,0.63748 1.22245,1.22245 0 0 1 -0.579,0.62516 0.54131,0.54131 0 0 1 -0.65586,-0.70521 c 0.16752,-1.07492 0.34167,-2.14881 0.51246,-3.22322 a 3.62125,3.62125 0 0 1 0.09149,-0.56732 c 0.09714,-0.29379 0.23074,-0.57551 0.349,-0.86233 0.28834,0.26573 0.58822,0.52057 0.85657,0.80517 a 0.52663,0.52663 0 0 1 0.02643,0.30303 z"
       id="path34"
       inkscape:connector-curvature="0" />
    <path
       d="m 40.514,83.90349 a 12.01887,12.01887 0 0 1 0.02242,-1.67 2.5197,2.5197 0 0 1 0.48026,-0.811 1.47489,1.47489 0 0 1 0.53754,0.52433 24.82811,24.82811 0 0 1 0.17045,2.56918 9.13741,9.13741 0 0 1 -0.11889,1.51507 1.94289,1.94289 0 0 1 -0.28532,0.55569 1.53263,1.53263 0 0 1 -0.66769,-0.45234 c -0.12832,-0.73136 -0.141,-1.483 -0.19646,-2.22717 z"
       id="path36"
       inkscape:connector-curvature="0" />
    <path
       d="m 38.83687,81.1201 c 0.76746,0.132 0.58542,0.68027 0.55937,1.09986 -0.06426,1.03516 -0.156,2.06979 -0.28151,3.09915 a 2.63987,2.63987 0 0 1 -0.35466,0.74825 2.01424,2.01424 0 0 1 -0.55252,-0.72036 8.11536,8.11536 0 0 1 0.62932,-4.2269 z"
       id="path38"
       inkscape:connector-curvature="0" />
    <path
       d="m 41.01717,72.50392 c -0.68309,0.46868 -1.41474,0.47219 -1.676,-0.0487 a 0.95364,0.95364 0 0 1 0.12934,-0.88163 c 0.3823,-0.37109 0.97949,0.0034 1.54666,0.93033 z"
       id="path40"
       inkscape:connector-curvature="0" />
    <path
       d="m 37.29193,75.00769 a 2.406,2.406 0 0 1 0.91728,-0.60006 2.51336,2.51336 0 0 1 0.81462,1.01381 0.82418,0.82418 0 0 1 -0.35332,0.4891 13.24259,13.24259 0 0 1 -1.37686,-0.5443 z"
       id="path42"
       inkscape:connector-curvature="0" />
    <path
       d="m 35.81052,73.6849 1.54825,0.95083 a 3.72371,3.72371 0 0 1 -1.17291,0.55741 0.9377,0.9377 0 0 1 -0.74134,-0.53845 2.183,2.183 0 0 1 0.366,-0.96979 z"
       id="path44"
       inkscape:connector-curvature="0" />
    <path
       d="m 37.0781,70.51953 a 11.64332,11.64332 0 0 1 1.22058,0.40645 0.55882,0.55882 0 0 1 0.29553,0.43039 0.774,0.774 0 0 1 -0.40582,0.44371 c -0.6521,0.28642 -1.1031,-0.19253 -1.11029,-1.28055 z"
       id="path46"
       inkscape:connector-curvature="0" />
    <path
       d="m 49.15628,77.766 a 0.90387,0.90387 0 0 1 -1.21908,0.47182 1.61492,1.61492 0 0 1 -0.66141,-0.94 0.79,0.79 0 0 1 0.46686,-0.592 1.541,1.541 0 0 1 1.41363,1.06018 z"
       id="path48"
       inkscape:connector-curvature="0" />
    <path
       d="m 47.63955,73.4791 c -0.85061,-8.3e-4 -1.30608,-0.39347 -1.238,-0.90923 a 0.76861,0.76861 0 0 1 0.449,-0.45446 14.18434,14.18434 0 0 1 1.34629,0.78644 z"
       id="path50"
       inkscape:connector-curvature="0" />
    <path
       d="m 47.744,75.09631 a 1.79183,1.79183 0 0 1 0.78817,-0.44206 3.50638,3.50638 0 0 1 0.845,0.84242 1.729,1.729 0 0 1 -0.68007,0.5672 3.37359,3.37359 0 0 1 -0.97355,-0.63947 z"
       id="path52"
       inkscape:connector-curvature="0" />
  </g>
</svg>
