<svg xmlns="http://www.w3.org/2000/svg" data-name="Слой 1" viewBox="0 0 100 125" x="0px" y="0px"><title>doodle2_Монтажная область 1_Монтажная область 1_Монтажная область 1_Монтажная область 1_Монтажная область 1_Монтажная область 1</title><path d="M75.62015,63.62469c4.90931-.12016,9.61393-.23856,14.319-.34882,1.67532-.03927,3.3519-.10818,5.0277-.04695.34482.0126.68877.54462,1.03312.8372-.36278.2947-.71719.84646-1.08962.84561-5.80646-.01342-11.6155-.005-17.42339-.22213a3.55159,3.55159,0,0,0-3.605,1.97709c-2.60331,4.30852-6.65969,6.72346-11.47088,7.78239a37.87154,37.87154,0,0,1-9.58448,1.0645,100.60769,100.60769,0,0,1-11.9831-1.67216,18.80461,18.80461,0,0,1-7.525-2.93051A20.832,20.832,0,0,1,30.24706,68.476a1.70085,1.70085,0,0,0-2.272-.46482c-4.93913,2.25226-9.9193,4.421-14.91872,6.54487-.43092.1831-1.45952-.01708-1.60251-.31451-.38055-.79165.25419-1.10475.98915-1.38879,3.87594-1.49814,7.72072-3.07134,11.57271-4.62678,1.46983-.59349,2.93013-1.209,4.50573-1.86041L26.87224,63.363c-3.59648,1.15065-7.10293,2.31885-10.64156,3.391-3.23169.97909-6.49284,1.87192-9.75677,2.75048A3.36424,3.36424,0,0,1,5.192,69.293l-.07232-.44949A5.36038,5.36038,0,0,1,6.41432,67.992c5.83223-1.74185,11.682-3.43084,17.515-5.17013a16.54689,16.54689,0,0,0,2.168-.986c-.51922-1.47136-.96658-2.73914-1.46475-4.15088-6.78174.95416-13.49086,2.78725-20.47384,1.76934L4,58.74434a8.55764,8.55764,0,0,1,2.02522-.57977c1.98349-.07478,4.00069.15435,5.96034-.05231,3.33035-.35125,6.64376-.86562,9.93234-1.46034,2.7861-.50382,2.5546-.62361,2.81324-3.44085.49343-5.37482,1.62415-10.6137,6.28813-13.94264a6.82294,6.82294,0,0,0,2.611-4.1094c.94226-3.15951,2.13434-6.24013,3.31324-9.31618a1.41182,1.41182,0,0,1,2.17265-.7699,10.63394,10.63394,0,0,1,2.99623,2.69424A46.18631,46.18631,0,0,1,45.05428,33.377c.31491.6524.54567,1.18292,1.40391.97172,3.26912-.8046,6.49552-.21346,9.71411.654a11.32231,11.32231,0,0,0,1.26593.19991c.22719-1.76293.37066-3.36986.65275-4.94736.40574-2.26882,1.8404-3.97373,3.2828-5.6212a1.56089,1.56089,0,0,1,1.525.06745,15.58027,15.58027,0,0,1,2.8805,3.62617c1.22426,2.51516,2.04928,5.2107,3.196,7.76582a10.83291,10.83291,0,0,0,1.96925,2.59139c3.65383,4.06029,6.35456,8.51629,6.45563,14.09771a7.9988,7.9988,0,0,0,.15537.92565c3.57227-.77,7.06349-1.54066,10.56775-2.2564a3.15028,3.15028,0,0,1,1.5039.17525,1.05061,1.05061,0,0,1,.17269.82126,4.00362,4.00362,0,0,1-1.49249.68688c-1.803.30167-3.62791.493-5.43663.76847-1.50048.22845-3.00441.4624-4.47534.8106a1.64224,1.64224,0,0,0-1.08909.93357,21.46672,21.46672,0,0,0-.33967,3.116c3.29873-.34684,6.49481-.6792,9.68964-1.02031,1.74212-.186,3.47746-.43791,5.22709-.53749.3457-.01963.74279.52107,1.11618.80333-.45843.35822-.88475.98931-1.38046,1.03042-3.25318.26977-6.522.40537-9.78429.59957-1.2981.07728-2.58969.24631-3.8898.272a1.44382,1.44382,0,0,0-1.61775,1.29776C76.18612,61.91453,75.92814,62.59274,75.62015,63.62469ZM62.434,26.28524c-2.89878,2.00745-3.48531,5.91613-3.17344,9.53988.09952,1.15645-.32945,1.62059-1.47083,1.34256-.81558-.19867-1.60462-.5506-2.42522-.69327-3.26006-.56679-6.5587-1.73622-9.6877.22192-.97312.60893-1.28437.16989-1.4932-.90635a15.33588,15.33588,0,0,0-4.45241-8.42311c-.79043-.75337-1.39631-.90068-1.85155.27438-.68976,1.78055-1.53447,3.50256-2.12457,5.31657a11.19194,11.19194,0,0,0-.8308,4.40273,2.14348,2.14348,0,0,1-1.07594,2.17013c-1.63365,1.40628-3.68372,2.567-4.74707,4.33611a27.71616,27.71616,0,0,0-2.544,7.32245,25.41322,25.41322,0,0,0-.34667,4.58439c2.34211-.15274,4.3676-.3007,6.39672-.40707.57621-.03022,1.4394-.12188,1.24117.7996a1.786,1.786,0,0,1-1.344.95966c-1.94386.22316-3.91164.28593-6.13684.42525.49372,1.30729.92723,2.45517,1.41929,3.758.96694-.47438,1.79914-.93463,2.675-1.29605.70657-.29163,1.61372-1.09683,2.19551-.09165.59878,1.03444-.53031,1.497-1.20174,1.98939a2.427,2.427,0,0,1-.892.20693c-.68453.145-1.369.29-2.26328.47947l1.44326,2.85324a24.87616,24.87616,0,0,1,2.66355-1.61681c.37925-.17145.94686.04942,1.429.09213-.21259.44956-.308,1.05309-.662,1.31675A20.40686,20.40686,0,0,1,30.7151,66.632l-.335.579a6.8858,6.8858,0,0,1,1.38132.72729,24.05791,24.05791,0,0,0,8.90911,4.4337A42.46565,42.46565,0,0,0,56.6079,74.13864c5.21406-.42456,9.95693-1.81629,13.81194-5.38779a8.034,8.034,0,0,0,2.82835-4.00132c-2.527,0-4.94691.04056-7.36713-.03822-.425-.01386-.85119-.52816-1.27684-.81132.42282-.23555.84023-.67626,1.26937-.67257,2.36872.02018,4.74084.123,7.11065.254a1.27254,1.27254,0,0,0,1.50536-1.05872c.167-.65492.35028-1.30517.59963-2.229-1.35666.08106-2.49643.10719-3.62312.2264-1.70133.18006-3.38815.47424-5.09407.60209-.35319.0265-.76293-.46253-1.14662-.714.31286-.25236.59989-.69136.94273-.72694,2.34591-.24355,4.69869-.46216,7.05876-.57164,2.30244-.10675,3.15043-1.40656,2.23108-3.79377-.92054.14219-1.87.25952-2.80543.439-2.5282.485-5.04542,1.02038-7.58116,1.46843-.33062.05843-.74437-.27789-1.11963-.43139.24434-.26321.44059-.62436.74491-.76543a5.59448,5.59448,0,0,1,1.34254-.28974c3.24835-.58987,6.49726-1.17715,9.70525-1.7579a13.56035,13.56035,0,0,0-1.5228-7.78348c-1.53191-2.61727-2.86615-5.37031-5.602-7.08826a3.52073,3.52073,0,0,1-1.02718-1.74257c-.91775-2.49581-1.65247-5.06087-2.70085-7.50193A20.17962,20.17962,0,0,0,62.434,26.28524Z"/><path d="M57.01358,67.35949c1.1671-.32765,2.32034-.71544,3.509-.94945.40214-.07916.89393.2306,1.34477.36262-.19458.37644-.28958.95242-.59914,1.09847a9.25915,9.25915,0,0,1-9.245-.45291,2.20225,2.20225,0,0,0-1.844-.12389,10.45654,10.45654,0,0,1-8.98315.50649c-.47526-.17091-1.17019-.90643-1.10965-1.2406.17766-.98066.9973-.64294,1.66727-.3872a8.55589,8.55589,0,0,0,7.50214-.20417,2.14128,2.14128,0,0,0,.92272-1.59536c.01461-1.42735-.33522-2.87034-.32986-4.299.00462-1.23281-.57841-1.70556-1.64276-2.05247a6.56065,6.56065,0,0,1-4.48771-3.94774c-.38086-1.01412-.15383-1.70828.87548-1.87622,1.20568-.19666,2.45857-.14646,3.67157-.31529,1.19883-.16678,2.35993-.5856,3.56228-.68853a9.28618,9.28618,0,0,1,4.0501.09657c2.31663.92937,2.28748,2.67987,1.01537,4.48609a6.0406,6.0406,0,0,1-2.38023,1.78389c-2.84992,1.3288-3.63465,2.801-2.95442,5.94939C52.13405,66.17432,53.59647,67.1531,57.01358,67.35949Zm-11.378-13.719c.21146,1.7871,1.5109,2.115,2.52362,2.69592,2.16866,1.2439,5.99691.43279,7.39482-1.52256a2.74112,2.74112,0,0,0,.20827-.35452A1.21243,1.21243,0,0,0,54.725,52.56994a6.17915,6.17915,0,0,0-3.03284.66636,4.06118,4.06118,0,0,1-3.02434.431A24.01245,24.01245,0,0,0,45.63553,53.64051Z"/><path d="M60.9126,44.694c-.01527,1.82183-.71071,2.47733-1.98837,2.42327a1.4825,1.4825,0,0,1-1.61046-1.54813c-.03777-.94436,1.42052-2.44028,2.22678-2.127C60.17942,43.69048,60.64128,44.43173,60.9126,44.694Z"/><path d="M42.45362,47.40172c-.41062-.54838-1.03445-1.05135-1.18332-1.6555a1.9401,1.9401,0,0,1,1.86759-2.09074c.97936.05331,1.3257.77912,1.40652,1.622C44.63065,46.17673,43.69565,47.13618,42.45362,47.40172Z"/><text x="0" y="115" fill="#000000" font-size="5px" font-weight="bold" font-family="'Helvetica Neue', Helvetica, Arial-Unicode, Arial, Sans-serif">Created by Tatyana</text><text x="0" y="120" fill="#000000" font-size="5px" font-weight="bold" font-family="'Helvetica Neue', Helvetica, Arial-Unicode, Arial, Sans-serif">from the Noun Project</text></svg>