<svg xmlns="http://www.w3.org/2000/svg" xmlns:xlink="http://www.w3.org/1999/xlink" version="1.1" x="0px" y="0px" viewBox="0 0 100 125" enable-background="new 0 0 100 100" xml:space="preserve"><path d="M87.914,6.683c-6.276-1.691-21.494,16.255-24.48,19.87c-0.352,0.426-0.292,1.056,0.134,1.408  c0.425,0.352,1.056,0.293,1.408-0.134c6.598-7.985,18.526-20.258,22.418-19.212c3.146,0.847,1.596,21.43-1.645,40.014  c-0.095,0.544,0.27,1.062,0.813,1.157c0.058,0.01,0.116,0.015,0.173,0.015c0.477,0,0.899-0.342,0.984-0.828  c0.017-0.099,1.742-10.039,2.711-20.048C92.235,10.298,90.034,7.254,87.914,6.683z"/><path d="M12.086,6.683c-2.12,0.571-4.322,3.615-2.518,22.241c0.97,10.009,2.694,19.949,2.711,20.048  c0.085,0.486,0.507,0.828,0.984,0.828c0.057,0,0.115-0.005,0.173-0.015c0.544-0.095,0.908-0.613,0.813-1.157  C11.01,30.045,9.459,9.462,12.606,8.615c3.902-1.063,15.821,11.227,22.418,19.212c0.352,0.426,0.983,0.486,1.408,0.134  c0.426-0.352,0.486-0.982,0.134-1.408C33.58,22.939,18.361,4.995,12.086,6.683z"/><path d="M59.77,90.943c-0.032,0.012-3.269,1.2-5.812-0.19c-1.386-0.758-2.345-2.186-2.867-4.231  c0.276-0.314,0.538-0.671,0.727-0.947c0.19-0.278,0.281-0.605,0.258-0.941c-0.054-0.784-0.142-2.278-0.06-2.744  c0.124-0.699,0.831-1.044,1.439-0.682c0.207,0.123,0.389,0.286,0.599,0.404c0.054,0.03,0.113,0.058,0.175,0.057  c0.088-0.001,0.164-0.061,0.221-0.128c0.431-0.509,0.827-1.204,0.62-1.891c-0.168-0.557-0.936-0.5-0.936-0.5H50h-4.134  c0,0-0.768-0.057-0.936,0.5c-0.207,0.687,0.189,1.383,0.62,1.891c0.057,0.067,0.133,0.126,0.221,0.128  c0.062,0.001,0.12-0.027,0.175-0.057c0.21-0.118,0.392-0.281,0.599-0.404c0.608-0.362,1.315-0.017,1.439,0.682  c0.083,0.465-0.005,1.96-0.06,2.744c-0.023,0.336,0.068,0.663,0.258,0.941c0.189,0.276,0.45,0.633,0.727,0.947  c-0.522,2.045-1.481,3.472-2.867,4.231c-2.539,1.388-5.772,0.206-5.812,0.19c-0.514-0.195-1.092,0.064-1.288,0.58  c-0.196,0.516,0.063,1.094,0.579,1.291c0.103,0.039,1.653,0.616,3.616,0.616c1.207,0,2.571-0.218,3.85-0.914  c1.281-0.696,2.288-1.761,3.013-3.179c0.725,1.418,1.732,2.482,3.013,3.179c3.36,1.827,7.3,0.361,7.466,0.298  c0.515-0.196,0.773-0.772,0.578-1.288C60.863,91.01,60.288,90.75,59.77,90.943z"/><text x="0" y="115" fill="#000000" font-size="5px" font-weight="bold" font-family="'Helvetica Neue', Helvetica, Arial-Unicode, Arial, Sans-serif">Created by Alina Oleynik</text><text x="0" y="120" fill="#000000" font-size="5px" font-weight="bold" font-family="'Helvetica Neue', Helvetica, Arial-Unicode, Arial, Sans-serif">from the Noun Project</text></svg>