<?xml version="1.0" encoding="UTF-8" standalone="no"?>
<svg
   xmlns:dc="http://purl.org/dc/elements/1.1/"
   xmlns:cc="http://creativecommons.org/ns#"
   xmlns:rdf="http://www.w3.org/1999/02/22-rdf-syntax-ns#"
   xmlns:svg="http://www.w3.org/2000/svg"
   xmlns="http://www.w3.org/2000/svg"
   xmlns:sodipodi="http://sodipodi.sourceforge.net/DTD/sodipodi-0.dtd"
   xmlns:inkscape="http://www.inkscape.org/namespaces/inkscape"
   version="1.1"
   x="0px"
   y="0px"
   viewBox="0 0 70.665039 41.700001"
   enable-background="new 0 0 100 100"
   xml:space="preserve"
   id="svg22"
   sodipodi:docname="simple_cat.svg"
   width="70.665039"
   height="41.700001"
   inkscape:version="0.92.5 (2060ec1f9f, 2020-04-08)"><metadata
     id="metadata28"><rdf:RDF><cc:Work
         rdf:about=""><dc:format>image/svg+xml</dc:format><dc:type
           rdf:resource="http://purl.org/dc/dcmitype/StillImage" /><dc:title></dc:title></cc:Work></rdf:RDF></metadata><defs
     id="defs26" /><sodipodi:namedview
     pagecolor="#ffffff"
     bordercolor="#666666"
     borderopacity="1"
     objecttolerance="10"
     gridtolerance="10"
     guidetolerance="10"
     inkscape:pageopacity="0"
     inkscape:pageshadow="2"
     inkscape:window-width="1280"
     inkscape:window-height="670"
     id="namedview24"
     showgrid="false"
     inkscape:zoom="1.888"
     inkscape:cx="36.728526"
     inkscape:cy="10.7"
     inkscape:window-x="0"
     inkscape:window-y="24"
     inkscape:window-maximized="1"
     inkscape:current-layer="svg22" /><g
     id="g4"
     transform="translate(-13.271474,-31.5)"><path
       d="m 83.2,49.2 c 0,0 0,0 0,0 -0.3,0 -0.5,-0.3 -0.4,-0.5 1.4,-10.3 -1.3,-15.1 -2,-16.2 -1.2,0.3 -6.4,2.2 -12.1,10.9 -0.1,0.2 -0.3,0.2 -0.5,0.2 -0.1,0 -11.2,-2.2 -19.5,-2.2 -8.3,0 -19.4,2.2 -19.5,2.2 -0.2,0 -0.4,0 -0.5,-0.2 C 23,34.7 17.8,32.8 16.6,32.5 c -0.7,1 -3.4,5.9 -2,16.2 0,0.2 -0.1,0.5 -0.4,0.5 -0.2,0 -0.5,-0.1 -0.5,-0.4 C 12,36.7 15.9,31.9 16,31.7 c 0.1,-0.1 0.3,-0.2 0.4,-0.2 0.3,0 6.2,1.1 12.8,11.1 1.8,-0.3 11.7,-2.1 19.4,-2.1 7.6,0 17.6,1.8 19.4,2.1 6.6,-10 12.5,-11.1 12.8,-11.1 0.2,0 0.3,0 0.4,0.2 0.2,0.2 4,4.9 2.3,17.1 0.1,0.2 -0.1,0.4 -0.3,0.4 z"
       id="path2"
       inkscape:connector-curvature="0" /></g><path
     d="m 39.028526,34.5 c -0.9,1.4 -2.2,2.8 -3.6,4 -1.4,-1.2 -2.6,-2.6 -3.6,-4 0,0 1.8,-0.8 3.6,-0.8 1.8,0 3.6,0.8 3.6,0.8 z"
     id="path6"
     inkscape:connector-curvature="0" /><g
     id="g10"
     transform="translate(-13.271474,-31.5)"><path
       d="m 43.5,73.2 c -0.1,0 -0.3,-0.1 -0.3,-0.2 0,-0.2 0.1,-0.3 0.2,-0.3 1.6,-0.3 3.3,-1.3 5.1,-2.9 0.1,-0.1 0.3,-0.1 0.4,0 1.8,1.5 3.5,2.5 5.1,2.9 0.2,0 0.3,0.2 0.2,0.3 0,0.2 -0.2,0.2 -0.3,0.2 -1.6,-0.4 -3.4,-1.3 -5.2,-2.9 -1.7,1.6 -3.5,2.6 -5.2,2.9 0.1,0 0.1,0 0,0 z"
       id="path8"
       inkscape:connector-curvature="0" /></g><circle
     cx="55.52853"
     cy="24.299999"
     r="2.9000001"
     id="circle12" /><circle
     cx="55.52853"
     cy="24.299999"
     r="2.9000001"
     id="circle14" /><circle
     cx="15.428527"
     cy="24.299999"
     r="2.9000001"
     id="circle16" /></svg>